<?xml version="1.0" encoding="utf-8"?>
<!-- Generator: Adobe Illustrator 16.0.0, SVG Export Plug-In . SVG Version: 6.00 Build 0)  -->
<!DOCTYPE svg PUBLIC "-//W3C//DTD SVG 1.1//EN" "http://www.w3.org/Graphics/SVG/1.1/DTD/svg11.dtd" [
	<!ENTITY st0 "fill:none;stroke:#578AC8;stroke-miterlimit:10;">
]>
<svg version="1.1" id="Layer_1" xmlns="http://www.w3.org/2000/svg" xmlns:xlink="http://www.w3.org/1999/xlink" x="0px" y="0px"
	 width="134.5px" height="134.5px" viewBox="0 0 134.5 134.5" style="enable-background:new 0 0 134.5 134.5;" xml:space="preserve"
	>
<g>
	<g>
		<path style="&st0;" d="M67.25,0.5C104.145,0.5,134,30.355,134,67.25S104.145,134,67.25,134S0.5,104.145,0.5,67.25
			S30.355,0.5,67.25,0.5z"/>
		<path style="&st0;" d="M11.614,67.25c0,30.735,24.901,55.636,55.636,55.636s55.636-24.901,55.636-55.636
			S97.984,11.614,67.25,11.614S11.614,36.515,11.614,67.25z"/>
		<path style="&st0;" d="M67.25,22.761c24.607,0,44.489,19.882,44.489,44.489s-19.882,44.489-44.489,44.489
			S22.761,91.857,22.761,67.25S42.643,22.761,67.25,22.761z"/>
		<path style="&st0;" d="M33.875,67.25c0,18.447,14.928,33.375,33.375,33.375s33.375-14.928,33.375-33.375
			S85.697,33.875,67.25,33.875S33.875,48.803,33.875,67.25z"/>
		<path style="&st0;" d="M67.25,44.989c12.287,0,22.261,9.973,22.261,22.261S79.537,89.511,67.25,89.511S44.989,79.538,44.989,67.25
			S54.963,44.989,67.25,44.989z"/>
		<path style="&st0;" d="M56.136,67.25c0,6.16,4.954,11.114,11.114,11.114S78.364,73.41,78.364,67.25S73.41,56.136,67.25,56.136
			S56.136,61.09,56.136,67.25z"/>
	</g>
	<g>
		<line style="&st0;" x1="67.25" y1="67.25" x2="67.25" y2="0.5"/>
		<line style="&st0;" x1="67.25" y1="67.25" x2="3.759" y2="46.619"/>
		<line style="&st0;" x1="67.25" y1="67.25" x2="28.008" y2="121.256"/>
		<line style="&st0;" x1="67.25" y1="67.25" x2="106.492" y2="121.256"/>
		<line style="&st0;" x1="67.25" y1="67.25" x2="130.74" y2="46.619"/>
	</g>
</g>
</svg>
